<svg id="Layer_1" data-name="Layer 1" xmlns="http://www.w3.org/2000/svg" viewBox="0 0 250 250"><defs><style>.cls-1{fill:#8dc63f;}.cls-2{fill:#fff;}.cls-3{fill:#006838;}.cls-4{fill:#d7df23;}</style></defs><circle class="cls-1" cx="125" cy="125" r="125"/><circle class="cls-2" cx="200.18" cy="140.4" r="38.22"/><path class="cls-3" d="M125,0A125,125,0,0,0,0,125H250A125,125,0,0,0,125,0Z"/><path class="cls-4" d="M0,125A125,125,0,0,0,125,250V0A125,125,0,0,0,0,125Z"/><circle class="cls-2" cx="58.86" cy="96.35" r="52.84"/><path class="cls-4" d="M138.3,96.35c4.28-35.52,23.65-52.83,52.84-52.83A52.83,52.83,0,0,1,244,96.35c0,1.71-.09,3.39-.24,5.06h4A125,125,0,0,0,125,0V250"/><circle class="cls-3" cx="207.87" cy="155.67" r="15.27"/><path class="cls-1" d="M125,217.17c19.23,0,34.81-9.94,34.81-22.2H90.19C90.19,207.23,105.77,217.17,125,217.17Z"/></svg>